<?xml version="1.0" encoding="UTF-8"?>
<svg width="32px" height="32px" viewBox="0 0 32 32" version="1.1"
	xmlns="http://www.w3.org/2000/svg">
	<g stroke="none" stroke-width="1" fill="none" fill-rule="evenodd">
		<circle fill="#6772E5" cx="16" cy="16" r="16"/>
		<path d="M10,8 L22,8 C23.1045695,8 24,8.8954305 24,10 L24,22 C24,23.1045695 23.1045695,24 22,24 L10,24 C8.8954305,24 8,23.1045695 8,22 L8,10 C8,8.8954305 8.8954305,8 10,8 Z M11,12 L21,12 L21,14 L11,14 L11,12 Z M11,16 L21,16 L21,18 L11,18 L11,16 Z M11,20 L17,20 L17,22 L11,22 L11,20 Z" fill="#FFFFFF"/>
	</g>
</svg>
